<svg xmlns="http://www.w3.org/2000/svg" width="64" height="64" viewBox="0 0 912.348 729.194"><path fill="#94C373" d="M216.174 128.952c-.274 1.563.154 2.313.952 3.548 4.431 6.853 23.234 21.055 30.72 25.279 5.253 2.964 18.456 4.374 11.339 12.688-5.953 6.956-20.545 9.04-29.007 6.489-.07 1.763-.179 3.504.264 5.25 1.887 7.44 34.211 25.724 35.281 30.653 1.452 6.687-22.014 9.211-26.554 8.097-.58 3.725 2.687 6.759 4.976 9.522 13.318 16.072 32.191 21.909 47.353 33.647 14.207 11-8.692 20.824-18.834 21.817-6.478.634-13.068-.581-19.486-.497 15.224 19.555 38 31.264 59.571 42.48-5.463 14.579-23.794 18.039-37.57 18.518 3.673 5.481 7.991 10.677 12.982 15.018 5.452 4.743 25.32 16.022 27.25 20.742 4.373 10.691-8.522 13.519-16.228 15.256-11.996 2.705-25.056 3.784-37 .491-.151 2.19 3.476 4.116 5.093 5.401 6.949 5.525 14.669 10.014 21.875 15.175-18.395 29.482-59.817 12.252-81.968-3.577-.716 11.016 1.09 54.054 13.695 57.796l50.657-2.934c2.32-.777 3.686-12.132 16.107-12.917 2.109-.133 6.678.864 7.584.517 1.423-.546 2.375-3.354 3.728-4.467 8.417-6.922 17.668-7.638 28.225-7.99-.999-5.57 1.679-26.922-.89-30.427-.627-.856-12.166-.637-10.657-6.524l71.246-75.849 80.685-.328 4.5-.984c.52-3.384-.338-6.944.178-10.326 1.238-8.118 14.053-3.471 20.293-4.428l1.5 1.5 1.076 13.924 30.073.927 52.491 56.491 38.201-36.78 79.604-.445 2.457-.994 1.38-13.612c.993-1.558 16.738-.197 17.42.785l.437 14.063h36.5l63.955 65.045c4.398 7.517.121 10.355-7.444 9.98l-.015 3.97c14.565 2.935 23.941-9.791 14.528-22.018l-65.969-66.031-31.558-.94c.092-3.961-.514-11.151-4.054-13.448-3.271-2.122-19.042-2.104-23.465-1.58-6.863.813-11.555 8.275-10.474 15.028l-77.26.238-34.244 31.738-48.127-50.855c-7.68-2.433-16.678-.587-24.76-1.067-1.54-.418-1.244-11.123-5.23-13.943-4.014-2.841-24.584-3.023-29.101-1.334-6.033 2.255-8.609 9.22-8.29 15.21l-80.737.763-47.807 50.215-1.468 3.031c-6.882-3.66-31.135-12.426-34.519-18.974-1.681-3.253 7.143-5.208 9.479-6.586 10.422-6.151 27.151-23.05 11.365-32.246-5.878-3.424-35.999-14.992-37.29-20.724-.305-1.352.712-1.727 1.677-2.278 3.089-1.764 8.177-2.71 12.001-4.999 8.689-5.201 13.614-12.185 12.326-22.719-1.371-11.202-23.471-13.298-29.974-22.084-.376-1.789 4.35-5.084 5.943-5.902 10.134-5.207 24.946-9.382 35.98-14.02 48.707-20.474 93.699-41.625 137.348-71.652 26.576-18.282 44.345-38.709 80.22-35.852 8.424.671 17.764 4.936 26.018 5.07 7.121.115 14.025-2.495 21.696-.776 12.717 2.85 37.769 26.365 50.029 34.962 45.588 31.971 105.979 61.313 157.042 83.958 12.456 5.524 26.231 9.944 38.36 15.64 5.55 2.606 10.651 4.904 12.848 11.152.99 71.799-.023 143.779 1.457 215.543.759 4.048 10.882 3.62 14.814 5.186 9.847 3.923 6.158 13.15-3.25 13.354l-797.836-.268c-5.717-1.539-7.055-8.263-1.273-10.844 7.493-3.346 29.911-5.509 39.201-6.799 18.824-2.615 40.486-2.935 58.601-6.399 2.776-.531 4.885-1.109 7.265-2.735 13.906-9.5 11.9-43.816 12.481-59.008-21.587 14.825-51.942 23.95-76.673 11.183-4.396-2.269-8.159-4.669-6.149-10.521.845-2.459 12.809-4.332 16.353-5.641 5.686-2.1 12.686-5.492 15.479-11.011-14.972 1.286-28.605 3.902-43.275-1.235-6.552-2.295-17.071-8.822-16.599-16.651 9.748-3.936 19.44-8.431 28.188-14.31 8.04-5.404 18.459-13.165 22.686-21.814h-15.5c-3.369 0-15.921-5.698-18.999-8.001-16.372-12.252 11.628-17.78 20.858-22.14 5.806-2.743 12.206-5.924 17.553-9.447 3.4-2.24 25.762-20.052 23.079-23.411-14.298 7.282-29.681 7.593-44.986 3.495-5.288-1.416-19.098-5.326-16.841-12.791 1.75-5.786 34.689-9.549 38.817-18.204l-4.82-2.647-.042-3.746c15.397-5.6 31.437-13.917 39.874-28.614-5.997-.364-12.263 3.691-18.599 4.401-7.421.832-16.997.312-23.768-3.02-4.567-2.247-6.225-4.532-2.15-8.902 3.518-3.773 15.289-9.685 20.439-13.558 3.745-2.816 8.698-6.755 12.1-9.9 2.711-2.507 17.896-17.93 15.976-20.514-7.883 2.971-14.654 3.77-22.791 1.301-3.068-.931-12.099-4.754-11.092-8.6 1.9-7.257 43.742-24.976 42.889-39.695-3.18.364-17.075.015-17.049-4.496.023-3.902 20.961-17.782 18.986-23.891-1.123-3.474-15.269.53-14.804-4.933.37-4.347 18.62-21.196 21.641-29.421 2.361-6.425-.595-3.678-2.321-6.276-1.231-1.852 6.116-15.841 7.101-19.94.977-4.069.85-8.899 1.922-13.078 1.735-6.771 4.412-13.308 6.592-19.923l2.995.395c5.844 14.598 7.607 31.92 15.115 45.885 1.772 3.297 8.394 9.504 6.363 12.698-3.195 5.024-11.38-.165-.562 12.501 2.469 2.891 16.61 15.028 16.91 16.159 1.538 5.799-14.74 5.405-14.859 7.808 2.852 4.748 5.471 9.675 9.005 13.977 2.284 2.78 13.37 12.434 13.853 14.213.74 2.725-4.796 5.317-6.383 5.317z"/><path fill="#94C373" d="M620.169 216.947c-10.743-3.21-24.966-14.409-29.872-24.618-.799-1.663-5.197-12.161-1.63-12.352 2.316-.124 16.676 15.233 19.023 17.959 1.95 2.265 14.356 17.133 12.478 19.012Z"/></svg>